<?xml version="1.0" encoding="UTF-8" standalone="no" ?>
<!DOCTYPE svg PUBLIC "-//W3C//DTD SVG 1.1//EN" "http://www.w3.org/Graphics/SVG/1.1/DTD/svg11.dtd">
<svg xmlns="http://www.w3.org/2000/svg" xmlns:xlink="http://www.w3.org/1999/xlink" version="1.1" width="1280" height="1024" viewBox="0 0 1280 1024" xml:space="preserve">
<desc>Created with Fabric.js 5.3.0</desc>
<defs>
</defs>
<g transform="matrix(1 0 0 1 640 512)" id="background-logo"  >
<rect style="stroke: none; stroke-width: 0; stroke-dasharray: none; stroke-linecap: butt; stroke-dashoffset: 0; stroke-linejoin: miter; stroke-miterlimit: 4; fill: rgb(255,255,255); fill-opacity: 0; fill-rule: nonzero; opacity: 1;"  paint-order="stroke"  x="-640" y="-512" rx="0" ry="0" width="1280" height="1024" />
</g>
<g transform="matrix(3.147475244585502 0 0 3.147475244585502 639.1161851756531 511.2929481405226)" id="shape-9d9de2f9-df01-4172-90d9-0023c4af2cb3"  >
<g style="opacity: 0.8;"  paint-order="stroke"   >
		<g transform="matrix(1 0 0 1 1.421085e-14 1.421085e-14)" id="Path-1"  >
<radialGradient id="SVGID_4141" gradientUnits="userSpaceOnUse" gradientTransform="matrix(1 0 0 1 0.00000338827054235935 -0.00000436215664478823)"  cx="124.99999882647872" cy="81.0590671810783" r="124.99999882647872" fx="124.99999882647872" fy="81.0590671810783">
<stop offset="46.400000000000006%" style="stop-color:rgb(139,53,209);stop-opacity: 1"/>
<stop offset="61.6%" style="stop-color:rgb(7,221,250);stop-opacity: 1"/>
<stop offset="74.8%" style="stop-color:rgb(231,15,206);stop-opacity: 1"/>
<stop offset="84.4%" style="stop-color:rgb(128,24,116);stop-opacity: 1"/>
<stop offset="93.60000000000001%" style="stop-color:rgb(251,250,250);stop-opacity: 1"/>
</radialGradient>
<path style="stroke: none; stroke-width: 1; stroke-dasharray: none; stroke-linecap: butt; stroke-dashoffset: 0; stroke-linejoin: miter; stroke-miterlimit: 4; fill: url(#SVGID_4141); fill-rule: nonzero; opacity: 1;"  paint-order="stroke"  transform=" translate(-125.00000221474926, -81.05906281892166)" d="M 249.93785 0.10982 C 249.85881 0.010450000000000001 249.72557 -0.025120000000000003 249.60699 0.02005 L 186.92572 24.30197 L 151.83313 35.75034 L 151.83313 26.909570000000002 L 169.18213 0.44801000000000357 C 169.26117 0.3266200000000036 169.23972 0.16571000000000358 169.13019 0.07086000000000359 C 169.01727 -0.024559999999996418 168.85692 -0.023429999999996412 168.74851999999998 0.07312000000000358 L 150.45367 16.266740000000002 L 126.46633 5.81933 L 125.27101 2.58502 C 125.18745 2.35692 124.81255 2.35692 124.72899000000001 2.58502 L 123.53330000000001 5.82024 L 99.55169 16.27203 L 81.25092 0.07312 C 81.14308999999999 -0.02285999999999999 80.97991999999999 -0.023989999999999997 80.87038 0.07086 C 80.76084 0.16571000000000002 80.73826 0.32662 80.81787 0.44801 L 98.16687 26.90957 L 98.16687 35.7502 L 63.07542 24.30197 L 0.39356 0.02005 C 0.27726 -0.02681 0.14119 0.01102 0.06271 0.10982 C -0.016329999999999997 0.20919 -0.020849999999999994 0.34808 0.05029 0.45253 L 19.23388 28.53265 L 6.14062 26.53757 C 6.01471 26.52176 5.8961500000000004 26.581609999999998 5.83969 26.692269999999997 C 5.78267 26.803499999999996 5.80412 26.938439999999996 5.8922 27.027079999999998 L 30.04208 51.347319999999996 L 18.40766 53.334 C 18.28401 53.355450000000005 18.1886 53.45313 18.16996 53.57678000000001 C 18.151889999999998 53.700430000000004 18.21513 53.82182000000001 18.32748 53.87771000000001 L 46.89132 68.11153 L 40.01824 71.28994 C 39.902499999999996 71.34357 39.83531 71.46666 39.85338 71.59313 C 39.87145 71.71959 39.97025 71.81897000000001 40.09615 71.83816 L 66.68792 75.88796 L 63.33109 79.79675 C 63.255430000000004 79.88539 63.239630000000005 80.01017 63.29157 80.11406000000001 C 63.34012 80.21286 63.44119 80.27441 63.55016 80.27441 C 63.55581 80.27441 63.56202 80.27441 63.56823 80.27385000000001 L 82.53593000000001 79.09779 L 89.21683 87.997 C 89.27103 88.06984 89.35685000000001 88.11275 89.44775 88.11275 C 89.4517 88.11275 89.4551 88.11275 89.45905 88.11275 C 89.5539 88.1088 89.64085 88.05912000000001 89.69166 87.97894000000001 L 93.26783 82.35441 L 99.79629 91.70248000000001 C 99.85162 91.78039000000001 99.94082 91.82556000000001 100.03341999999999 91.82556000000001 C 100.06221 91.82556000000001 100.09156999999999 91.82104000000001 100.12035999999999 91.81201000000001 C 100.24061999999999 91.77475000000001 100.32248999999999 91.66295000000001 100.32248999999999 91.53649000000001 L 100.32248999999999 84.30235000000002 L 108.20428999999999 90.66136000000002 C 108.25622999999999 90.70427000000002 108.32059999999998 90.72572000000001 108.38552999999999 90.72572000000001 C 108.42786999999998 90.72572000000001 108.47079 90.71669000000001 108.51030999999999 90.69749000000002 C 108.61079999999998 90.64894000000001 108.67460999999999 90.54843000000001 108.67460999999999 90.43665000000001 L 108.67460999999999 82.89007000000001 L 116.88768999999999 93.57412000000001 L 90.15463 126.43209000000002 C 90.08406 126.51903000000001 90.06994 126.63873000000001 90.11793 126.73923000000002 C 90.16535 126.83973000000002 90.26699 126.90409000000002 90.37878 126.90409000000002 L 100.40069000000001 126.90409000000002 L 94.48510000000002 135.40018000000003 C 94.41904000000002 135.49390000000002 94.41566000000002 135.61925000000002 94.47607000000002 135.71636000000004 C 94.52915000000002 135.80330000000004 94.62287000000002 135.85412000000002 94.72224000000003 135.85412000000002 C 94.73579000000002 135.85412000000002 94.74934000000003 135.85299000000003 94.76345000000003 135.85073000000003 L 113.99475000000004 133.09499000000002 L 110.36219000000004 143.09227 C 110.32832000000005 143.18488000000002 110.34412000000005 143.28876000000002 110.40453000000004 143.36667 L 124.77076000000004 162.00522 C 124.77415000000003 162.00952 124.78099000000005 162.00789 124.78452000000004 162.01199 C 124.81747000000004 162.05059 124.85622000000005 162.08531 124.90682000000004 162.10232 C 124.93731000000004 162.11361 124.96893000000004 162.11812999999998 124.99998000000004 162.11812999999998 C 125.03103000000003 162.11812999999998 125.06265000000003 162.11360999999997 125.09314000000003 162.10232 C 125.14374000000004 162.08531 125.18249000000003 162.05059 125.21544000000003 162.01199 C 125.21897000000003 162.00789 125.22582000000003 162.00952 125.22920000000003 162.00522 L 139.59485000000004 143.36667 C 139.65471000000002 143.28876 139.67165000000003 143.18488 139.63776000000004 143.09226999999998 L 136.00513000000004 133.09492999999998 L 155.23651000000004 135.85072999999997 C 155.25006000000005 135.85298999999998 155.26361000000003 135.85411999999997 155.27716000000004 135.85411999999997 C 155.37653000000003 135.85411999999997 155.47024000000005 135.80330999999995 155.52331000000004 135.71635999999998 C 155.58317000000002 135.61925 155.57978000000003 135.49389999999997 155.51428000000004 135.40017999999998 L 149.59869000000003 126.90408999999998 L 159.62118000000004 126.90408999999998 C 159.73297000000005 126.90408999999998 159.83459000000005 126.83972999999999 159.88201000000004 126.73922999999998 C 159.93058000000005 126.63873999999998 159.91590000000005 126.51903999999998 159.84588000000002 126.43208999999997 L 133.11287 93.5734 L 141.32593999999997 82.88935000000001 L 141.32593999999997 90.43663000000001 C 141.32593999999997 90.54842000000001 141.39029999999997 90.64892 141.49080999999998 90.69747000000001 C 141.53033 90.71667000000001 141.57210999999998 90.7257 141.61502 90.7257 C 141.67937999999998 90.7257 141.74373999999997 90.70425 141.79681 90.66134000000001 L 149.67749 84.30276 L 149.67749 91.53647000000001 C 149.67749 91.66293 149.75992 91.77473 149.87962000000002 91.81199000000001 C 149.90898 91.82102 149.93721000000002 91.82554 149.96656000000002 91.82554 C 150.05915000000002 91.82554 150.14837000000003 91.78037 150.20370000000003 91.70246 L 156.73257000000004 82.35454 L 160.30889000000005 87.97893 C 160.35970000000006 88.05911 160.44665000000003 88.10879 160.54149000000004 88.11274 C 160.54488000000003 88.11274 160.54939000000005 88.11274 160.55278000000004 88.11274 C 160.64313000000004 88.11274 160.72894000000005 88.06983 160.78427000000005 87.99699 L 167.46460000000005 79.09785 L 186.43175000000005 80.27383999999999 C 186.43740000000005 80.27439999999999 186.44417000000004 80.27439999999999 186.44982000000005 80.27439999999999 C 186.55935000000005 80.27439999999999 186.65984000000003 80.21284999999999 186.70841000000004 80.11404999999999 C 186.76035000000005 80.01015999999998 186.74454000000006 79.88538 186.66887000000006 79.79673999999999 L 183.31206000000006 75.88801999999998 L 209.90439000000006 71.83814999999998 C 210.02973000000006 71.81894999999999 210.12909000000008 71.71957999999998 210.14603000000005 71.59311999999998 C 210.16410000000005 71.46664999999999 210.09748000000005 71.34355999999998 209.98117000000005 71.28992999999998 L 203.10844000000006 68.11158999999998 L 231.67306000000005 53.87768999999998 C 231.78485000000006 53.82179999999998 231.84808000000004 53.70040999999998 231.83001000000004 53.57675999999998 C 231.81194000000005 53.45310999999998 231.71597000000006 53.35543999999998 231.59289000000004 53.333979999999976 L 219.95848000000004 51.347299999999976 L 244.10779000000002 27.027059999999977 C 244.19473000000002 26.938419999999976 244.21620000000001 26.80347999999998 244.15973000000002 26.692249999999976 C 244.10327000000004 26.581019999999977 243.98358000000002 26.522869999999976 243.85825000000003 26.537549999999978 L 230.76554000000002 28.53255999999998 L 249.94913000000003 0.4525099999999789 C 250.02142 0.34808 250.01578 0.20919 249.93785 0.10982 z M 156.39622 81.82593 L 150.25564 90.6173 L 150.25564 83.69813 L 150.25564 72.1679 L 156.39622 81.82593 z M 132.75081 94.04555 L 159.0137 126.32593 L 149.19758 126.32593 L 129.58567 98.16033999999999 L 132.75081 94.04555 z M 108.09647 89.8325 L 100.32251 83.55981 L 100.32251 72.02505 L 108.09647 82.13757999999999 L 108.09647 89.8325 z M 93.60378 81.82593 L 99.74436 72.16847 L 99.74436 83.69814 L 99.74436 90.61730999999999 L 93.60378 81.82593 z M 89.428 87.31609 L 83.12312 78.91768 L 99.27926 71.82194 L 93.01264 81.678 C 93.0125 81.67820999999999 93.01264 81.67836 93.0125 81.67855999999999 L 89.428 87.31609 z M 123.25031 6.57391 L 121.32842 11.775559999999999 L 106.53367 22.43519 L 100.04135 16.68927 L 123.25031 6.57391 z M 149.97673 16.68927 L 143.48497 22.43519 L 128.67441 11.775559999999999 L 126.75139 6.573909999999999 L 149.97673 16.68927 z M 98.74502 36.14874 L 98.74502 27.36866 L 103.82535 30.81702 C 101.44719 34.5282 101.56858 39.160669999999996 103.79994 42.68411 L 98.74502000000001 46.84506 L 98.74502000000001 36.14874 z M 125 32.56297 C 125.01976 32.56297 125.03896 32.56127 125.05815 32.55732 L 150.17209 27.40027 L 125 44.38342 L 99.82792 27.40028 L 124.94185 32.55733 C 124.96104 32.56128 124.98024 32.56297 125 32.56297 z M 102.51315 49.61725 L 100.23633 48.21479 L 98.95222 47.423790000000004 L 104.12931 43.16234 C 104.87705 44.21531 105.81195000000001 45.15989 106.94468 45.92309 C 108.39683000000001 46.90133 110.00072 47.47891 111.62909 47.69713 L 111.45131 55.12295 L 102.51315 49.61725 z M 132.10159 58.07798 L 125.53466999999999 61.01651 L 130.20333 49.38012 L 137.72803 55.56001 L 132.10159 58.07798 z M 118.76683 40.92468 C 116.55416 43.93681 112.32136 44.69677 109.19179 42.58686 C 106.06334 40.47921 105.17523 36.27239 107.13607999999999 33.08918 L 118.76683 40.92468 z M 142.86278 33.08861 C 143.79099 34.593270000000004 144.11506999999997 36.36498 143.77517999999998 38.109590000000004 C 143.41608999999997 39.94962 142.36254999999997 41.539530000000006 140.80764999999997 42.58686 C 137.67750999999996 44.69451 133.44639999999995 43.93795 131.23316999999997 40.92468 L 142.86278 33.08861 z M 125 45.10667 L 129.73389 48.99492 L 125 60.79624 L 120.26527 48.99563 L 125 45.10667 z M 137.96834 55.00882 L 127.26242 46.21667 L 125.48421 44.75584 L 127.89109 43.14243 C 130.0324 46.164229999999996 133.43391 47.80376 136.904 47.80376 C 137.20069 47.80376 137.49719 47.763389999999994 137.79395 47.73939 L 137.96834 55.00882 z M 124.51572 44.75577 L 119.73455 48.68284 L 112.03229 55.00882 L 112.20655000000001 47.7389 C 112.50339000000001 47.76283 112.79987000000001 47.80319 113.09656000000001 47.80319 C 116.56595000000002 47.80319 119.96801 46.16444 122.10932000000001 43.14271 L 124.51572 44.75577 z M 112.27232 55.56015 L 119.79665999999999 49.38012 L 120.02863999999998 49.95834 L 124.46532999999998 61.01651 L 114.11798999999998 56.38616 L 112.27232 55.56015 z M 138.54924 55.12322 L 138.37105 47.697610000000005 C 139.99935 47.47918000000001 141.60324 46.90131 143.05588 45.92307 C 144.18839 45.159800000000004 145.12309 44.2153 145.87068 43.16225 L 151.04791 47.42377 L 149.30359 48.498549999999994 L 138.54924 55.12322 z M 142.73293 45.44317 C 138.02756000000002 48.61339 131.65323 47.43846 128.37517 42.84997 L 130.76407 41.24065 C 132.24112 43.26205 134.54604 44.36027 136.89836 44.36027 C 138.35728 44.36027 139.83201 43.94134 141.1306 43.06677 C 142.8131 41.93249 143.95358 40.21159 144.34203 38.22025 C 144.71184 36.32454 144.34909 34.40321 143.33606 32.77116 L 145.72191 31.163890000000002 C 148.74252 35.9229 147.43604 42.27407 142.73293 45.44317 z M 106.66366 32.77103 C 104.52672999999999 36.21875 105.47694999999999 40.7805 108.86883999999999 43.06678 C 110.16741999999999 43.941340000000004 111.64214999999999 44.36028 113.10163999999999 44.36028 C 115.45396999999998 44.36028 117.75936999999999 43.262060000000005 119.23593999999999 41.240660000000005 L 121.62482999999999 42.84998 C 118.34845999999999 47.436220000000006 111.97300999999999 48.61228 107.26763999999999 45.443180000000005 C 102.56396999999998 42.27465000000001 101.25748999999999 35.923480000000005 104.27807999999999 31.163910000000005 L 106.66366 32.77103 z M 112.01704 56.07909 L 124.71091999999999 61.76008 L 124.71091999999999 94.69349 L 112.01703999999998 73.35468 L 112.01703999999998 56.07909 z M 125.28908 94.69357 L 125.28908 61.76008 L 137.98352 56.07909 L 137.98352 73.35469 L 125.28908 94.69357 z M 151.25499 36.14874 L 151.25499 46.84506999999999 L 146.19997999999998 42.68404999999999 C 148.43086 39.160599999999995 148.55231999999998 34.52813999999999 146.1743 30.817309999999992 L 151.25499 27.36866999999999 L 151.25499 36.14874 z M 135.28841 29.69022 L 129.02403999999999 12.740110000000001 L 143.04028999999997 22.82872 L 135.28841 29.69022 z M 182.42989 36.04768 L 179.22974 44.631280000000004 L 175.20068999999998 55.438340000000004 L 150.20484 70.69091 L 147.94643 50.013600000000004 L 151.69538 47.70383 C 151.7812 47.651320000000005 151.83314 47.55816 151.83314 47.457660000000004 L 151.83314 36.35877 L 186.535 25.03764 L 182.42989 36.04768 z M 151.3679 26.56411 L 136.16550999999998 29.68578 L 143.69465 23.0214 C 143.69471 23.02133 143.69492 23.02133 143.695 23.02126 L 150.69941 16.8214 C 150.69955 16.821260000000002 150.69962 16.820980000000002 150.69976 16.82084 L 167.51318 1.9385700000000003 L 151.3679 26.56411 z M 134.7766 29.9709 L 125 31.97861 L 115.22397 29.9709 L 125 3.51887 L 134.7766 29.9709 z M 114.71146 29.69057 L 106.96679 22.83542 L 120.97512 12.742289999999999 L 114.71146 29.69057 z M 113.83379 29.6857 L 98.6314 26.56389 L 82.48626 1.93856 L 113.83379 29.6857 z M 98.16687 47.45766 C 98.16687 47.558159999999994 98.21881 47.65132 98.30406 47.703829999999996 L 102.05413 50.0136 L 99.79574 70.69091 L 74.79988 55.43834 L 74.26175 53.995079999999994 L 63.46548 25.03743 L 98.16687 36.35877 L 98.16687 47.45766 z M 62.75974 24.79917 L 66.85591 35.78796 L 19.943939999999998 28.546409999999998 L 1.05302 0.89518 L 62.75974 24.79917 z M 67.08739 36.40902 L 70.10574 44.50481 L 30.607519999999994 51.09594 L 6.9192 27.24106 L 67.08739 36.40902 z M 70.31181 45.05755 L 74.19906999999999 55.48231 L 47.45741 67.74821 L 19.37708 53.7552 L 70.31181 45.05755 z M 74.54517 55.95995 L 80.61863 59.66682 L 67.13206 75.37086 L 41.13334 71.41132999999999 L 74.54517 55.95995 z M 81.1188 59.972 L 99.40983999999999 71.13278 L 82.60298999999999 78.51463 L 64.21526999999999 79.65447999999999 L 81.1188 59.972 z M 108.61477 81.86319 L 100.33344 71.09071 L 102.59903 50.34953 L 111.43889 55.79452 L 111.43889 73.4343 C 111.43889 73.48624 111.453 73.53761999999999 111.47954 73.58223 L 124.71092 95.82404 L 124.71092 102.80242 L 121.00094 97.97628999999999 L 117.48573999999999 93.40303999999999 C 117.48559999999999 93.40283 117.48518 93.40289999999999 117.48504 93.40268999999999 L 108.61511999999999 81.86411999999999 C 108.61491 81.86383 108.61498 81.86347 108.61477 81.86319 z M 120.41376 98.16034 L 100.80296999999999 126.32593 L 90.98684999999999 126.32593 L 117.25029999999998 94.04554999999999 L 120.41376 98.16034 z M 113.68847 108.83084 L 120.78308 98.64152 L 124.67421999999999 103.70357 L 114.21840999999999 132.47892 L 95.33935 135.18448999999998 L 113.68847 108.83084 z M 124.71092 105.29462 L 124.71092 160.98102 L 110.95955000000001 143.1397 L 124.71092 105.29462 z M 125.28908 160.98102 L 125.28908 105.29462000000001 L 139.03932 143.1397 L 125.28908 160.98102 z M 125.32578 103.70358 L 129.21636 98.64153 L 131.57285000000002 102.02581 L 154.65952000000001 135.1845 L 135.78159000000002 132.47893000000002 L 125.32578 103.70358 z M 131.18384 95.13402 L 128.99849 97.97628 L 125.28908 102.80226 L 125.28908 95.82403000000001 L 138.52101 73.58222 C 138.54810999999998 73.53761 138.56166 73.48623 138.56166 73.43429 L 138.56166 55.79453 L 147.40103 50.349540000000005 L 149.6662 71.09065000000001 L 131.18384 95.13402 z M 141.9041 82.13759 L 149.67749 72.02506 L 149.67749 83.55982 L 141.9041 89.83251 L 141.9041 82.13759 z M 156.98834 81.67956 C 156.98807 81.67905999999999 156.9882 81.6785 156.98791 81.678 L 152.58482 74.75354999999999 L 150.72087000000002 71.8218 L 166.87631000000002 78.91767999999999 L 160.57199000000003 87.31608999999999 L 156.98834 81.67956 z M 167.39708 78.51463 L 150.59016 71.13278 L 168.88175999999999 59.971999999999994 L 185.78473 79.65447999999999 L 167.39708 78.51463 z M 169.38136 59.66683 L 175.45594 55.959959999999995 L 208.86666 71.41135 L 182.86793 75.37088 L 169.38136 59.66683 z M 175.80148 55.4823 L 179.68818 45.05754 L 230.62292 53.75519 L 202.54201999999998 67.74821 L 175.80148 55.4823 z M 179.89371 44.50481 L 182.91205 36.40902 L 243.08023 27.241059999999997 L 219.39305 51.095929999999996 L 179.89371 44.50481 z M 183.14354 35.78796 L 187.24139 24.799169999999997 L 248.94642 0.8951799999999963 L 230.05605 28.546419999999998 L 183.14354 35.78796 z" stroke-linecap="round" />
</g>
</g>
</g>
<g transform="matrix(1.9211538461538467 0 0 1.9211538461538467 644.959797333517 426.6288435897291)" id="text-logo"  >
<g style=""  paint-order="stroke"   >
		<g transform="matrix(1 0 0 1 0 -2.842171e-14)" id="text-logo-path-0"  >
<filter id="SVGID_4136" y="-46.566911045269705%" height="193.1338220905394%" x="-37.48360911645332%" width="174.96721823290665%" >
	<feGaussianBlur in="SourceAlpha" stdDeviation="11.5"></feGaussianBlur>
	<feOffset dx="-5" dy="0" result="oBlur" ></feOffset>
	<feFlood flood-color="rgb(0,0,0)" flood-opacity="1"/>
	<feComposite in2="oBlur" operator="in" />
	<feMerge>
		<feMergeNode></feMergeNode>
		<feMergeNode in="SourceGraphic"></feMergeNode>
	</feMerge>
</filter>
<path style="stroke: rgb(255,255,255); stroke-width: 0; stroke-dasharray: none; stroke-linecap: butt; stroke-dashoffset: 0; stroke-linejoin: miter; stroke-miterlimit: 4; fill: rgb(0,0,0); fill-rule: nonzero; opacity: 1;filter: url(#SVGID_4136);"  paint-order="stroke"  transform=" translate(-85.985, 17.883070705118357)" d="M 57.12 -39.54 C 56.16 -51.65 40.44 -61.17 26.08 -61.17 C 18.25 -61.17 13.46 -56.78 13.46 -50.41 C 13.46 -36.89 41.63 -18.53 41.63 -6.93 C 41.63 2.2 33.68 3.89 24.39 4 C 14.87 4 8.17 0.79 8.17 -4 C 8.17 -7.6 12.39 -10.93 16.17 -9.69 C 16.84 -9.46 17.63 -9.97 17.63 -10.76 C 17.63 -11.27 17.35 -11.66 16.84 -11.83 C 11.72 -13.52 5.91 -9.07 5.91 -4 C 5.91 2.53 14.08 6.25 24.39 6.25 C 34.13 6.14 43.88 4.11 43.88 -6.93 C 43.88 -19.77 15.72 -38.13 15.72 -50.41 C 15.72 -55.43 19.49 -58.92 26.08 -58.92 C 39.54 -58.92 54.02 -49.96 54.86 -39.32 C 54.92 -38.7 55.37 -38.3 55.99 -38.3 C 56.67 -38.3 57.17 -38.81 57.12 -39.54 Z M 71.99 -13.46 C 70.07 -11.72 68.21 -9.8 66.52 -7.89 C 66.69 -10.42 66.69 -12.79 66.64 -14.93 C 66.64 -15.55 66.13 -16.05 65.51 -16.05 C 65 -16.05 64.61 -15.72 64.44 -15.26 C 64.44 -15.26 64.38 -15.21 64.33 -15.1 C 61.29 -8.84 56.33 -2.31 52.95 -2.31 C 49.68 -2.31 50.75 -6.98 55.48 -15.49 C 55.6 -15.66 55.65 -15.83 55.65 -16.05 C 55.65 -16.67 55.15 -17.18 54.53 -17.18 C 54.08 -17.18 53.74 -16.9 53.57 -16.62 C 48.39 -7.32 46.64 -0.06 52.95 -0.06 C 56.89 -0.06 61.17 -5.01 64.38 -10.42 C 64.33 -8.67 64.16 -6.76 63.99 -4.9 C 52.44 9.58 48.1 25.69 54.58 25.4 C 59.6 25.4 63.71 12.79 65.62 0.28 L 66.19 -4 C 68.16 -6.48 70.47 -9.01 72.94 -11.32 C 78.47 -7.72 85.39 -6.14 90.24 -11.89 C 90.41 -12.05 90.52 -12.34 90.52 -12.62 C 90.52 -13.24 90.01 -13.74 89.39 -13.74 C 89.05 -13.74 88.77 -13.63 88.55 -13.35 C 84.55 -8.62 78.63 -10.08 73.62 -13.52 C 73.51 -13.63 73.23 -13.74 73 -13.74 L 72.89 -13.74 L 72.72 -13.74 C 72.44 -13.74 72.16 -13.63 71.99 -13.46 Z M 54.58 23.15 C 52.22 23.26 54.98 11.66 63.43 -0.34 L 63.37 -0.06 C 61.51 12.17 57.34 23.15 54.58 23.15 Z M 98.24 -18.14 C 96.43 -16.17 94.69 -14.87 92.83 -14.87 C 92.21 -14.87 91.7 -15.04 91.36 -15.26 C 94.35 -19.83 95.93 -24.62 91.98 -24.62 C 88.21 -24.62 86.69 -18.7 88.55 -15.15 L 87.08 -13.29 C 86.91 -13.12 86.8 -12.84 86.8 -12.56 C 86.8 -11.94 87.31 -11.43 87.93 -11.43 C 88.27 -11.43 88.55 -11.55 88.77 -11.83 L 90.07 -13.46 C 90.74 -12.96 91.7 -12.62 92.83 -12.62 C 94.24 -12.62 95.48 -13.07 96.72 -13.86 C 94.29 -2.82 101.39 -0.06 106.91 -0.06 C 113.33 -0.06 120.2 -4.9 126.06 -11.89 C 126.23 -12.05 126.34 -12.34 126.34 -12.62 C 126.34 -13.24 125.84 -13.74 125.22 -13.74 C 124.88 -13.74 124.6 -13.63 124.37 -13.35 C 118.74 -6.59 112.54 -2.31 106.91 -2.31 C 101.73 -2.31 96.21 -4.79 99.48 -15.43 C 99.53 -15.6 99.53 -15.94 99.48 -16.11 L 99.93 -16.56 C 100.1 -16.79 100.21 -17.07 100.21 -17.35 C 100.21 -17.97 99.7 -18.48 99.08 -18.48 C 98.74 -18.48 98.46 -18.36 98.24 -18.14 Z M 90.07 -17.46 C 89.67 -19.6 90.58 -22.36 91.98 -22.36 C 92.66 -22.36 91.76 -20.17 90.07 -17.46 Z M 133.44 -13.41 C 131.92 -7.72 127.7 -2.31 124.88 -2.31 C 120.04 -2.31 125.33 -17.63 132.09 -17.63 C 133.61 -17.63 134.57 -16.5 134.96 -14.7 L 134.96 -14.65 L 134.79 -14.65 C 134.29 -14.65 133.89 -14.36 133.72 -13.86 C 133.55 -13.74 133.5 -13.63 133.44 -13.41 Z M 164.08 -13.35 C 158.45 -6.59 152.25 -2.31 146.62 -2.31 C 141.72 -2.31 136.93 -6.98 135.92 -13.69 L 135.86 -13.8 L 136.09 -13.8 C 136.82 -13.8 137.33 -14.53 137.22 -15.15 C 136.6 -17.8 134.85 -19.88 132.09 -19.88 C 122.85 -19.88 116.09 -0.06 124.88 -0.06 C 128.43 -0.06 132.43 -4.68 134.57 -9.86 C 136.65 -4 141.44 -0.06 146.62 -0.06 C 153.04 -0.06 159.92 -4.9 165.77 -11.89 C 165.94 -12.05 166.06 -12.34 166.06 -12.62 C 166.06 -13.24 165.55 -13.74 164.93 -13.74 C 164.59 -13.74 164.31 -13.63 164.08 -13.35 Z" stroke-linecap="round" />
</g>
</g>
</g>
<g transform="matrix(1.9211538461538467 0 0 1.9211538461538467 656.2889684513254 541.7897285251379)" id="tagline-c41ac5ab-10c2-4fd0-adbc-ba6cac97bc6a-logo"  >
<g style=""  paint-order="stroke"   >
		<g transform="matrix(1 0 0 1 0 0)" id="tagline-c41ac5ab-10c2-4fd0-adbc-ba6cac97bc6a-logo-path-0"  >
<path style="stroke: rgb(255,255,255); stroke-width: 0; stroke-dasharray: none; stroke-linecap: butt; stroke-dashoffset: 0; stroke-linejoin: miter; stroke-miterlimit: 4; fill: rgb(0,0,0); fill-rule: nonzero; opacity: 1;"  paint-order="stroke"  transform=" translate(-119.85, 10.5)" d="M 9.72 -21 L 1.32 0 L 3.84 0 L 5.91 -5.19 L 16.77 -5.19 L 18.84 0 L 21.36 0 L 12.96 -21 Z M 6.81 -7.44 L 11.34 -18.75 L 15.87 -7.44 Z M 57.33 0.3 C 60.24 0.3 62.91 -0.87 64.86 -2.79 L 64.86 0 L 67.26 0 L 67.26 -10.35 L 57.66 -10.35 L 57.66 -8.1 L 64.86 -8.1 L 64.86 -6.54 C 63.51 -3.84 60.72 -1.95 57.33 -1.95 C 52.44 -1.95 48.93 -5.46 48.93 -10.5 C 48.93 -15.54 52.44 -19.05 57.33 -19.05 C 60.03 -19.05 62.31 -17.97 63.81 -16.17 L 65.58 -17.46 C 63.6 -19.8 60.63 -21.3 57.33 -21.3 C 51.39 -21.3 46.53 -16.44 46.53 -10.5 C 46.53 -4.56 51.39 0.3 57.33 0.3 Z M 92.43 -21 L 92.43 0 L 107.13 0 L 107.13 -2.25 L 94.83 -2.25 L 94.83 -9.39 L 104.13 -9.39 L 104.13 -11.64 L 94.83 -11.64 L 94.83 -18.75 L 107.13 -18.75 L 107.13 -21 Z M 132.3 -21 L 132.3 0 L 134.7 0 L 134.7 -18.57 L 146.1 0 L 149.7 0 L 149.7 -21 L 147.3 -21 L 147.3 -2.43 L 135.9 -21 Z M 185.67 0.3 C 190.11 0.3 193.98 -2.43 195.6 -6.3 L 193.11 -6.3 C 191.76 -3.6 189.06 -1.95 185.67 -1.95 C 180.78 -1.95 177.27 -5.46 177.27 -10.5 C 177.27 -15.54 180.78 -19.05 185.67 -19.05 C 188.37 -19.05 190.65 -17.97 192.15 -16.17 L 193.92 -17.46 C 191.94 -19.8 188.97 -21.3 185.67 -21.3 C 179.73 -21.3 174.87 -16.44 174.87 -10.5 C 174.87 -4.56 179.73 0.3 185.67 0.3 Z M 220.77 -21 L 228.36 -9.93 L 228.36 0 L 230.76 0 L 230.76 -9.87 L 238.38 -21 L 235.5 -21 L 229.59 -12.36 L 223.65 -21 Z" stroke-linecap="round" />
</g>
</g>
</g>
</svg>